<svg width="25" height="28" viewBox="0 0 25 28" fill="none" xmlns="http://www.w3.org/2000/svg">
<g clip-path="url(#clip0_1_36)">
<path fill-rule="evenodd" clip-rule="evenodd" d="M14.9703 9.97416C15.8268 9.54706 16.9167 8.91837 18.0078 8.057C18.2379 8.53477 18.2631 8.95169 18.1446 9.28835C18.0606 9.5256 17.9023 9.73196 17.6941 9.89613C17.4688 10.0736 17.1873 10.2027 16.8761 10.2725C16.2857 10.4055 15.5963 10.3279 14.9703 9.97416ZM15.1188 14.3502L16.2526 15.0051C13.9376 16.3026 13.3082 18.7119 12.5606 21.0586C11.8131 18.7119 11.1837 16.3026 8.86874 15.0051L10.0025 14.3502C10.1122 14.3087 10.206 14.2336 10.2704 14.1356C10.3347 14.0376 10.3665 13.9218 10.3609 13.8047C10.2571 11.6069 10.8505 10.6351 11.6509 10.0248C11.938 9.80625 12.2514 9.69649 12.5606 9.69649C12.8698 9.69649 13.1833 9.80625 13.4704 10.0248C14.2709 10.6351 14.8643 11.6069 14.7604 13.8047C14.7549 13.9218 14.7866 14.0376 14.851 14.1356C14.9154 14.2336 15.0091 14.3087 15.1188 14.3502ZM12.5606 0C13.8712 0.0351867 15.1851 0.289613 16.3253 0.78456C17.1149 1.12775 17.8517 1.58107 18.5188 2.12315C18.8201 2.36787 19.0682 2.60428 19.3415 2.87644C20.0785 2.90192 21.1557 2.08311 21.6558 1.31693C20.7952 4.1384 16.8679 7.47031 14.149 8.74524C14.1479 8.74477 14.1471 8.74412 14.1463 8.74356C13.6583 8.37097 13.1095 8.18468 12.5606 8.18468C12.0117 8.18468 11.463 8.37097 10.9751 8.74356C10.9742 8.74403 10.9735 8.74487 10.9724 8.74524C8.25339 7.47031 4.3262 4.1384 3.46558 1.31693C3.96556 2.08311 5.04272 2.90192 5.77978 2.87644C6.05315 2.60437 6.30123 2.36787 6.60242 2.12315C7.26956 1.58107 8.00634 1.12775 8.79594 0.78456C9.93628 0.289613 11.2501 0.0351867 12.5606 0ZM10.1509 9.97416C9.29452 9.54706 8.20458 8.91837 7.11351 8.057C6.88344 8.53477 6.85824 8.95169 6.97668 9.28835C7.06078 9.5256 7.21907 9.73196 7.42711 9.89613C7.6526 10.0736 7.9341 10.2027 8.24527 10.2725C8.8357 10.4055 9.52496 10.3279 10.1509 9.97416Z" fill="#FEFDDF"/>
<path fill-rule="evenodd" clip-rule="evenodd" d="M19.2029 7.00149C19.8036 6.39529 20.3329 5.72431 20.7585 5.12558L20.9747 5.53242C21.6706 6.92467 22.0321 8.31133 22.0321 9.87186L22.0306 12.3482L22.0437 13.6319C22.0941 16.7834 22.776 19.9719 24.3207 22.8899L21.0888 20.2838L18.802 23.9947L16.3996 21.7331L12.5607 27.963L8.72167 21.7332L6.31937 23.9948L4.03261 20.2839L0.800659 22.89C2.34533 19.972 3.02722 16.7835 3.07771 13.632L3.09078 12.3483L3.08929 9.87195C3.08929 8.31133 3.45077 6.92467 4.14685 5.53251L4.36291 5.12567C4.78851 5.72441 5.31771 6.39529 5.9185 7.00158L5.7309 7.39125C5.36643 8.14809 5.24575 8.99434 5.52967 9.79915C5.7127 10.3175 6.04674 10.7621 6.47738 11.1014C6.89551 11.431 7.39037 11.6531 7.90846 11.7698C8.24595 11.8458 8.58979 11.877 8.93139 11.8664C8.85169 12.3182 8.81687 12.7868 8.81463 13.2643L5.76599 15.0252L8.11855 16.3439C8.30659 16.4493 8.48559 16.5701 8.65373 16.705C10.5933 18.4464 11.7594 23.5981 12.5608 26.1145C13.3622 23.5981 14.5282 18.4464 16.4679 16.705C16.636 16.5701 16.815 16.4493 17.003 16.3439L19.3556 15.0252L16.3069 13.2643C16.3046 12.7868 16.2698 12.3182 16.1901 11.8664C16.5317 11.877 16.8756 11.8458 17.213 11.7698C17.7311 11.6531 18.2261 11.431 18.6441 11.1014C19.0747 10.7621 19.4088 10.3175 19.5917 9.79915C19.8758 8.99434 19.755 8.14818 19.3906 7.39125L19.203 7.00158L19.2029 7.00149Z" fill="#FEFDDF"/>
</g>
<defs>
<clipPath id="clip0_1_36">
<rect width="23.52" height="28" fill="white" transform="translate(0.800659)"/>
</clipPath>
</defs>
</svg>
